<svg width="50" height="50" viewBox="0 0 167 167" fill="none" xmlns="http://www.w3.org/2000/svg">
<g filter="url(#filter0_b_3929_188)">
<path fill-rule="evenodd" clip-rule="evenodd" d="M30.1405 139.511V87.5875L29.8711 86.8684V77.5262L30.1405 76.4485V32.4312H136.861V90.1936L137.041 90.7316V107.531L136.861 108.248V139.511H30.1405Z" fill="#E1E1E6"/>
<g filter="url(#filter1_b_3929_188)">
<path fill-rule="evenodd" clip-rule="evenodd" d="M137.758 101.871C137.758 104.566 136.052 105.823 132.998 105.823H127.159V103.128H132.998C133.536 103.128 133.896 103.038 134.166 102.858C134.345 102.679 134.525 102.408 134.525 102.049C134.525 101.6 134.345 101.33 134.166 101.151C133.987 100.971 133.626 100.881 133.088 100.881C130.303 100.791 126.8 100.971 126.8 97.0181C126.8 95.223 127.878 93.2459 131.112 93.2459H137.131V95.9395H131.56C131.022 95.9395 130.663 95.9395 130.392 96.1188C130.033 96.3891 129.943 96.6586 129.943 97.1073C129.943 97.5579 130.213 97.8264 130.571 98.0058C130.932 98.0959 131.29 98.0959 131.739 98.1851H133.357C135.064 98.1851 136.142 98.5455 136.861 99.1737C137.399 99.8044 137.758 100.614 137.758 101.871ZM125.092 99.1754C124.373 98.5473 123.295 98.1869 121.589 98.1869H119.972C119.523 98.0968 119.163 98.0968 118.804 98.0075C118.445 97.8282 118.174 97.5587 118.174 97.1091C118.174 96.6603 118.264 96.3917 118.625 96.1205C118.894 95.9412 119.253 95.9412 119.793 95.9412H125.362V93.2476H119.343C116.11 93.2476 115.031 95.2238 115.031 97.0198C115.031 100.972 118.535 100.793 121.319 100.883C121.859 100.883 122.128 100.973 122.397 101.152C122.578 101.332 122.757 101.603 122.757 102.051C122.757 102.41 122.578 102.681 122.397 102.86C122.127 103.039 121.769 103.13 121.229 103.13H115.391V105.825H121.229C124.283 105.825 125.991 104.568 125.991 101.872C125.991 100.614 125.632 99.8044 125.092 99.1754ZM113.594 103.218H106.497V100.704H113.414V98.0976L106.497 98.1877V95.8528H113.594V93.2485H103.532V105.825H113.594V103.218ZM100.299 93.8757C99.3105 93.3377 98.1435 93.2476 96.6152 93.2476H89.6997V105.824H92.7537V101.242H95.9871C97.0648 101.242 97.693 101.332 98.1426 101.781C98.6806 102.41 98.5914 103.489 98.5914 104.296L98.6815 105.824H101.646V103.399C101.646 102.229 101.556 101.691 101.197 101.062C100.928 100.704 100.388 100.253 99.6692 99.9846C100.478 99.7151 101.825 98.6374 101.825 96.6612C101.825 95.2238 101.287 94.4155 100.299 93.8757ZM83.2305 93.2476H73.6189L69.7557 97.3803L66.0727 93.2476H53.9451V105.824H65.8933L69.7557 101.691L73.4386 105.824H79.2781V101.602H83.0511C85.6563 101.602 88.2607 100.883 88.2607 97.3803C88.2607 93.8757 85.5671 93.2476 83.2305 93.2476ZM97.874 98.458C97.4235 98.6374 96.9756 98.6374 96.3457 98.6374H92.7537V95.852H96.4359C96.9756 95.852 97.5136 95.852 97.874 96.1214C98.2327 96.3025 98.5022 96.6612 98.5022 97.1992C98.5018 97.4433 98.4449 97.684 98.3359 97.9024C98.2269 98.1208 98.0689 98.311 97.874 98.458ZM83.2305 99.0853H79.2781V95.852H83.2305C84.31 95.852 85.0274 96.3025 85.0274 97.3803C85.0274 98.458 84.3091 99.0853 83.2305 99.0853ZM71.6418 99.5358L76.3133 94.5948V104.745L71.6418 99.5358ZM64.3659 103.218H56.9098V100.704H63.5576V98.0976L56.9098 98.1877V95.8528H64.456L67.7795 99.5367L64.3659 103.218ZM129.403 84.174H125.091L119.433 74.7409V84.174H113.324L112.156 81.3886H105.866L104.699 84.174H101.196C99.7576 84.174 97.8723 83.8136 96.7945 82.7358C95.806 81.6581 95.2662 80.2207 95.2662 77.9751C95.2662 76.0881 95.5357 74.3822 96.8838 73.0341C97.7822 72.0464 99.3088 71.5968 101.464 71.5968H104.339V74.2921H101.464C100.387 74.2921 99.7567 74.3822 99.1294 75.0103C98.5897 75.5492 98.231 76.5377 98.231 77.885C98.231 79.2322 98.5004 80.1306 99.1294 80.8489C99.5782 81.2976 100.387 81.4778 101.196 81.4778H102.543L106.855 71.5959H111.348L116.379 83.4541V71.5976H121.05L126.349 80.3117V71.5976H129.403V84.174ZM93.7414 71.5976H90.6874V84.1749H93.7414V71.5976ZM87.3622 72.1365C86.3754 71.5968 85.2959 71.5968 83.7694 71.5968H76.8531V84.174H79.8169V79.5917H83.0511C84.1289 79.5917 84.848 79.6818 85.2067 80.1306C85.8366 80.7596 85.7465 81.8374 85.7465 82.5565V84.174H88.8004V81.6581C88.8004 80.5803 88.7103 79.9513 88.2607 79.4124C87.9912 79.0528 87.4532 78.6032 86.8242 78.3346C87.5433 77.9751 88.9798 76.9865 88.9798 74.9211C88.9798 73.573 88.3508 72.7655 87.3622 72.1365ZM74.6966 81.5688H67.6902V79.0537H74.5173V76.4485H67.6902V74.2029H74.6966V71.5976H64.6354V84.1749H74.6966V81.5688ZM62.3897 71.5976H57.4487L53.7658 80.1315L49.8133 71.5976H44.9625V83.4558L39.8422 71.5976H35.35L29.9602 84.1749H33.1936L34.3614 81.3895H40.6496L41.8175 84.1749H47.9255V74.2921L52.3276 84.174H54.9328L59.3348 74.2921V84.174H62.3888L62.3897 71.5976ZM111.079 78.6942L109.013 73.6631L106.947 78.6942H111.079ZM84.9373 76.718C84.5786 76.9874 84.0388 76.9874 83.4999 76.9874H79.8169V74.2029H83.4999C84.0388 74.2029 84.5786 74.2028 84.9373 74.3822C85.3878 74.6516 85.5671 75.0112 85.5671 75.5501C85.5671 76.089 85.3878 76.5377 84.9373 76.718ZM35.4401 78.6942L37.5064 73.6631L39.5727 78.6942H35.4401ZM137.04 32.1617H29.871V77.437L33.554 69.0825H41.3696L42.4474 71.1489V69.0825H51.6102L53.6765 73.5739L55.6527 69.0825H84.848C86.1952 69.0825 87.3622 69.352 88.2607 70.0711V69.0825H96.2565V70.0711C97.6037 69.352 99.3105 69.0825 101.288 69.0825H112.875L113.953 71.1489V69.0825H122.489L123.746 71.1489V69.0825H132.1V86.6891H123.657L122.039 83.9955V86.6891H111.529L110.361 83.8145H107.755L106.587 86.6891H101.108C98.9527 86.6891 97.3352 86.1511 96.2565 85.5212V86.6891H83.2305V82.6466C83.2305 82.1077 83.1404 82.0176 82.7808 82.0176H82.332V86.6883H57.1793V84.4426L56.2809 86.6883H50.9812L50.0828 84.5327V86.6883H39.9314L38.7635 83.8136H36.2484L35.0805 86.6883H29.8701V139.779H137.04V107.53C135.872 108.068 134.254 108.337 132.637 108.337H124.822V107.26C123.923 107.979 122.306 108.337 120.779 108.337H96.1655V104.205C96.1655 103.756 96.0754 103.756 95.6258 103.756H95.177V108.336H87.0919V103.577C85.7447 104.205 84.2173 104.205 82.8701 104.205H81.9716V108.337H72.0914L69.6664 105.644L67.1513 108.337H51.2506V90.7308H67.4208L69.7565 93.4261L72.2716 90.7308H83.1412C84.3984 90.7308 86.4638 90.9101 87.3631 91.8086V90.7308H97.0657C98.0543 90.7308 99.9404 90.9101 101.198 91.8086V90.7308H115.84V91.8086C116.649 91.0912 118.175 90.7308 119.524 90.7308H127.699V91.8086C128.598 91.1804 129.855 90.7308 131.471 90.7308H137.042V32.1617H137.04Z" fill="url(#paint0_linear_3929_188)"/>
</g>
</g>
<defs>
<filter id="filter0_b_3929_188" x="25.8701" y="28.1617" width="115.888" height="115.617" filterUnits="userSpaceOnUse" color-interpolation-filters="sRGB">
<feFlood flood-opacity="0" result="BackgroundImageFix"/>
<feGaussianBlur in="BackgroundImageFix" stdDeviation="2"/>
<feComposite in2="SourceAlpha" operator="in" result="effect1_backgroundBlur_3929_188"/>
<feBlend mode="normal" in="SourceGraphic" in2="effect1_backgroundBlur_3929_188" result="shape"/>
</filter>
<filter id="filter1_b_3929_188" x="25.8701" y="28.1617" width="115.888" height="115.617" filterUnits="userSpaceOnUse" color-interpolation-filters="sRGB">
<feFlood flood-opacity="0" result="BackgroundImageFix"/>
<feGaussianBlur in="BackgroundImageFix" stdDeviation="2"/>
<feComposite in2="SourceAlpha" operator="in" result="effect1_backgroundBlur_3929_188"/>
<feBlend mode="normal" in="SourceGraphic" in2="effect1_backgroundBlur_3929_188" result="shape"/>
</filter>
<linearGradient id="paint0_linear_3929_188" x1="191" y1="130" x2="83.814" y2="139.779" gradientUnits="userSpaceOnUse">
<stop stop-color="#A9A9B2" stop-opacity="0.05"/>
<stop offset="1" stop-color="#A9A9B2"/>
</linearGradient>
</defs>
</svg>
