<svg width="108" height="20" viewBox="0 0 106 18" fill="none" xmlns="http://www.w3.org/2000/svg">
  <g filter="url(#filter0_b_3929_217)">
    <path fill-rule="evenodd" clip-rule="evenodd" d="M0.587891 0.458317H5.14588C5.99585 0.458317 6.84525 0.535634 7.61734 0.651615C11.6341 1.23096 14.8014 3.35559 14.8014 8.99439C14.8014 14.5951 11.6341 16.7573 7.61734 17.298C6.84525 17.4139 5.99529 17.452 5.14588 17.452H0.587891V0.458317ZM103.945 3.04575C104.562 3.04575 105.026 2.58239 105.026 1.88706C105.026 1.1923 104.562 0.689715 103.945 0.689715C103.326 0.689715 102.862 1.19174 102.862 1.88706C102.862 2.58239 103.326 3.04575 103.945 3.04575ZM103.945 0.419656C104.137 0.419583 104.328 0.457486 104.506 0.531205C104.684 0.604923 104.846 0.713009 104.983 0.849285C105.119 0.985562 105.227 1.14736 105.301 1.32542C105.374 1.50349 105.412 1.69434 105.412 1.88706C105.412 2.07983 105.374 2.27074 105.301 2.44888C105.227 2.62701 105.119 2.78887 104.983 2.92521C104.846 3.06154 104.685 3.16968 104.507 3.24343C104.328 3.31718 104.138 3.35511 103.945 3.35504C103.752 3.35504 103.561 3.31707 103.383 3.24331C103.205 3.16955 103.043 3.06145 102.907 2.92516C102.771 2.78887 102.663 2.62707 102.589 2.449C102.515 2.27093 102.477 2.08009 102.477 1.88735C102.477 1.69461 102.515 1.50375 102.589 1.32568C102.663 1.14762 102.771 0.985817 102.907 0.849529C103.043 0.713241 103.205 0.605134 103.383 0.531376C103.561 0.457617 103.752 0.419656 103.945 0.419656V0.419656ZM103.945 2.11903L103.867 2.00304H103.674V2.69837H103.364V1.03766H104.021C104.407 1.03766 104.64 1.1923 104.64 1.53968C104.64 1.80975 104.446 1.96438 104.176 2.00304L104.64 2.69837H104.292L103.945 2.11903ZM103.945 1.26962H103.983C104.137 1.26962 104.292 1.30828 104.292 1.50158C104.292 1.73355 104.137 1.77164 103.983 1.77164H103.675V1.26962H103.945ZM93.2073 7.6805C94.4819 7.52586 95.5241 6.98518 95.5241 5.36313C95.5241 3.8184 94.4825 3.39313 93.2073 3.20039H90.8893V7.75839H91.9707C92.396 7.75839 92.8207 7.71917 93.2073 7.6805V7.6805ZM93.2073 0.496977C96.22 0.612958 99.0007 1.23096 99.0007 5.09307C99.0007 7.10172 97.726 8.76243 95.602 9.03249C96.4906 9.14847 97.0313 10.0371 97.34 10.8097L100.006 17.452H96.2973L94.2892 12.1225C93.9805 11.3499 93.7104 10.8859 93.2078 10.6159C92.9378 10.4618 92.5131 10.3839 91.9713 10.3839H90.8899V17.452H87.5685V0.458317H91.16C91.8161 0.458317 92.5506 0.458317 93.2073 0.496977ZM62.2695 5.55643C62.6556 6.56048 62.8483 7.68107 62.8483 8.95573C62.8483 10.1531 62.6556 11.3118 62.2695 12.3545C61.0722 15.6361 58.1755 17.7613 54.1979 17.7613C48.8679 17.7613 45.4685 14.1306 45.4685 8.95517C45.4685 3.74051 48.9446 0.187694 54.1979 0.187694C58.1755 0.187694 61.0722 2.27367 62.2695 5.55643V5.55643ZM62.2695 1.96438L68.1408 17.452H69.3763L75.9037 0.458317H72.4271L68.9516 9.41854L65.2441 0.458317H61.6907L62.2695 1.96438V1.96438ZM76.7537 0.458317H86.6406V3.20039H80.1132V7.37178H86.0607V9.99732H80.1138V14.7873H86.6798V17.452H76.7542V0.458317H76.7537V0.458317ZM7.61734 3.47102C7.03799 3.27772 6.41999 3.20039 5.80255 3.20039H3.90987V14.7873H5.80255C6.42055 14.7873 7.03855 14.6713 7.61734 14.4785C9.66465 13.744 11.3254 11.8519 11.3254 8.99383C11.3259 6.13577 9.66465 4.16578 7.61734 3.47102V3.47102ZM16.1148 0.458317H19.4748V17.452H16.1148V0.458317ZM30.251 4.97708C29.0923 4.2431 27.8568 3.50912 26.5435 3.35504C25.3462 3.20039 24.0715 3.54778 24.0715 5.24715C24.0715 8.18253 31.4102 6.94652 31.4102 12.6245C31.4102 16.332 28.4748 18.1474 25.1148 17.7613C23.2994 17.5674 22.2567 17.0268 20.8274 16.0619V12.5853C21.948 13.2039 23.6081 14.4007 24.9215 14.6326C26.3508 14.8646 27.8955 14.4388 27.8955 12.8946C27.8955 9.61184 20.596 10.9633 20.596 5.36257C20.596 1.57778 23.454 0.187134 26.3894 0.187134C27.8574 0.187134 29.1315 0.727815 30.2515 1.73186V4.97708H30.251V4.97708ZM44.6186 15.7527C43.7686 16.8351 41.7605 17.452 40.4085 17.568C35.1944 17.916 31.7184 15.0192 31.7184 9.26445C31.7184 3.47101 34.7697 0.0722736 40.4085 0.381556C41.5286 0.420216 43.3439 0.806256 44.5413 1.8103V5.05497C43.112 4.1669 41.6445 3.5489 40.4085 3.51024C36.9711 3.39426 35.1944 5.55699 35.1944 9.03305C35.1944 12.5097 36.8552 14.4399 40.4085 14.2858C41.7986 14.2477 43.8846 13.1271 44.6186 12.5097V15.7527V15.7527Z" fill="url(#paint0_linear_3929_217)" />
  </g>
  <defs>
    <filter id="filter0_b_3929_217" x="-3.41211" y="-3.81287" width="112.824" height="25.6251" filterUnits="userSpaceOnUse" color-interpolation-filters="sRGB">
      <feFlood flood-opacity="0" result="BackgroundImageFix" />
      <feGaussianBlur in="BackgroundImageFix" stdDeviation="2" />
      <feComposite in2="SourceAlpha" operator="in" result="effect1_backgroundBlur_3929_217" />
      <feBlend mode="normal" in="SourceGraphic" in2="effect1_backgroundBlur_3929_217" result="shape" />
    </filter>
    <linearGradient id="paint0_linear_3929_217" x1="53" y1="0.187134" x2="53" y2="17.8123" gradientUnits="userSpaceOnUse">
      <stop />
      <stop offset="1" stop-opacity="0" />
    </linearGradient>
  </defs>
</svg>
