<svg width="90" height="20" viewBox="0 0 220 57" fill="none" xmlns="http://www.w3.org/2000/svg">
  <g clip-path="url(#clip0_3929_201)">
    <g filter="url(#filter0_b_3929_201)">
      <path d="M26.6076 0.0137939C11.9346 0.0137939 0 12.7912 0 28.5005C0 44.2073 11.9392 56.9872 26.6169 56.9872H57.9106C72.5813 56.9872 84.5182 44.2098 84.5182 28.5005C84.5182 12.7912 72.5906 0.0137939 57.9292 0.0137939H26.6076Z" fill="url(#paint0_linear_3929_201)" />
    </g>
    <g filter="url(#filter1_b_3929_201)">
      <path d="M0 28.7827C0 13.1992 11.8005 0.565308 26.356 0.565308C40.9115 0.565308 52.712 13.1992 52.712 28.7827C52.712 44.3662 40.9115 57 26.356 57C11.8005 57 0 44.3662 0 28.7827Z" fill="url(#paint1_linear_3929_201)" fill-opacity="0.8" />
    </g>
    <g filter="url(#filter2_d_3929_201)">
      <path d="M21.453 44.3234C18.387 43.1766 15.7297 41.0377 13.8491 38.2027C11.9685 35.3678 10.9575 31.9771 10.9561 28.5C10.9561 25.0239 11.9655 21.6337 13.8445 18.7988C15.7234 15.9639 18.379 13.8244 21.4437 12.6765L21.453 44.3234ZM31.7621 44.2862C34.1218 45.1699 36.6448 45.4359 39.1201 45.0618C41.5954 44.6877 43.9511 43.6844 45.99 42.1359C48.029 40.5873 49.692 38.5386 50.8398 36.161C51.9877 33.7834 52.5871 31.1462 52.5879 28.4697C52.5886 25.7933 51.9908 23.1556 50.8443 20.7773C49.6979 18.3989 48.0361 16.3491 45.9981 14.7992C43.96 13.2493 41.6049 12.2444 39.1298 11.8687C36.6547 11.4929 34.1316 11.7571 31.7714 12.6393L31.7621 44.2862ZM91.1938 48.5462V48.0844C91.8176 48.0298 92.2489 47.9082 92.4831 47.722C92.8471 47.4439 93.1462 46.8606 93.3804 45.9793C93.3804 45.9793 96.7704 32.8394 96.8956 32.2709C96.9397 32.0624 96.9606 31.8563 96.9606 31.6503C96.9606 30.7367 96.4759 30.4736 95.0731 30.3817V29.92H101.675V30.3817C100.972 30.4835 100.487 30.6424 100.223 30.8608C99.9587 31.0793 99.7129 31.6205 99.488 32.4844L96.2186 45.1129C95.9913 46.0041 95.9055 46.5726 95.9055 46.8705C95.9055 47.8014 96.5293 48.0298 97.7281 48.0819V48.5437H91.1938V48.5462Z" fill="#232324" />
    </g>
    <path d="M100.147 48.5462H98.1294C98.1294 48.5462 100.573 39.2071 100.715 38.6138C100.791 38.229 100.782 37.7374 100.546 37.4842C100.33 37.2533 99.7687 37.2211 99.0662 37.3229V36.8512C100.033 36.6898 100.511 36.5955 101.046 36.4738L103.377 35.9302C103.422 35.9607 103.458 36.0047 103.481 36.0568L101.749 42.052C102.809 40.3143 103.692 39.0234 104.406 38.1768C105.656 36.6799 106.776 35.9327 107.766 35.9327C108.879 35.9327 109.552 36.6153 109.552 37.8293C109.552 38.2737 109.454 38.7503 109.317 39.3089C109.317 39.3089 107.576 46.1258 107.495 46.4957C107.46 46.6345 107.438 46.7767 107.43 46.9202C107.43 47.2007 107.541 47.4639 107.819 47.4639C108.044 47.4639 108.304 47.3224 108.601 47.0394C108.895 46.7564 109.378 46.1506 110.048 45.2222L110.426 45.5846C109.714 46.6173 109.15 47.3422 108.733 47.7593C108.021 48.4941 107.339 48.859 106.69 48.859C106.099 48.859 105.426 48.5065 105.426 47.4117C105.438 47.0865 105.48 46.734 105.545 46.451L107.186 39.6763C107.358 38.9365 107.407 38.4598 107.407 38.2563C107.407 37.8094 107.233 37.4321 106.73 37.4321C106.078 37.4321 105.26 38.0626 104.269 39.3287C103.623 40.181 103.031 41.0792 102.498 42.0173C102.065 42.7654 101.7 43.5569 101.41 44.3806C101.139 45.1378 100.722 46.528 100.147 48.5462V48.5462ZM110.382 47.6252C110.386 47.4664 110.403 47.2702 110.447 47.0667L112.895 37.3229H110.915C110.915 36.8264 110.947 36.7842 111.228 36.6526C112.104 36.2529 112.784 35.8681 113.266 35.4957C113.748 35.1258 114.405 34.4084 115.239 33.3484L115.448 33.0827C115.474 33.0454 115.507 33.0149 115.545 32.9933C115.583 32.9718 115.625 32.96 115.668 32.9586C115.731 32.9694 115.793 32.9878 115.852 33.0132C115.877 33.0778 115.893 33.1374 115.898 33.187C115.9 33.2401 115.898 33.2933 115.891 33.3459L115.149 36.3845H117.271L117.115 37.3179H114.901L112.557 46.6993C112.471 47.0319 112.615 47.4093 112.946 47.4093C113.171 47.4093 113.489 47.1685 113.897 46.6844C114.131 46.4262 114.525 45.9098 115.082 45.1378L115.42 45.3463L115.237 45.6392C113.741 48.0398 112.666 48.8441 111.643 48.8441C110.762 48.8516 110.382 48.2583 110.382 47.6252V47.6252ZM119.265 41.3371C119.773 40.0288 120.665 38.4996 121.825 37.3998C122.367 36.8835 122.921 36.6253 123.485 36.6253C124.092 36.6253 124.41 37.0771 124.41 37.7821C124.41 38.7577 123.888 39.7408 122.847 40.7313C121.806 41.7218 120.454 42.345 118.796 42.6056C118.961 42.1339 119.119 41.7094 119.265 41.3371ZM117.064 47.8487C117.758 48.5462 118.564 48.8938 119.485 48.8938C120.788 48.8938 122.084 48.3973 123.378 47.4018C124.106 46.8432 124.667 46.2996 125.059 45.7708L124.721 45.4506C124.148 45.9765 123.543 46.4609 122.91 46.9003C121.412 47.8536 120.035 47.8015 119.063 46.9128C118.564 46.4585 118.314 45.8229 118.314 45.0037C118.314 44.3185 118.388 43.9958 118.613 43.2337L119.355 43.1369C120.993 42.9144 122.568 42.3175 123.972 41.3867C125.433 40.4334 126.165 39.289 126.165 37.9509C126.165 36.6327 125.307 35.9575 123.951 35.9575C122.119 35.9575 120.345 36.9232 118.627 38.857C116.89 40.7884 116.023 42.7868 116.023 44.8498C116.023 46.1531 116.371 47.1511 117.064 47.8487V47.8487ZM130.856 35.8607C130.935 35.8607 130.988 35.8855 131.018 35.9376C131.049 35.9896 131.065 36.0499 131.065 36.1114C131.059 36.1813 131.051 36.2509 131.039 36.3199L129.736 41.7144L130.024 41.1136C130.65 39.8054 131.38 38.6088 132.217 37.5239C133.054 36.4416 133.852 35.9004 134.606 35.9004C135.419 35.9004 135.881 36.5781 135.881 37.3204C135.881 38.1619 135.41 38.7702 134.631 38.7702C134.093 38.7702 133.85 38.5145 133.694 38.2116L133.539 37.9062C133.507 37.8534 133.465 37.8079 133.416 37.7722C133.363 37.738 133.302 37.7207 133.24 37.7225C132.901 37.7225 132.412 38.229 131.774 39.2418C131.137 40.2547 130.566 41.352 130.063 42.5311C129.759 43.2461 129.421 44.1944 129.048 45.3761C128.813 46.1184 128.5 47.1734 128.111 48.5388H126.105C126.105 48.5388 128.387 39.6639 128.558 38.8521C128.716 38.0304 128.716 37.5537 128.475 37.2757C128.25 37.02 127.802 37.0299 126.847 37.1491V36.6898C128.044 36.4366 130.388 35.9451 130.856 35.8607V35.8607Z" fill="#232324" />
    <path d="M136.694 48.5463H134.677C134.677 48.5463 137.121 39.2071 137.262 38.6138C137.337 38.229 137.332 37.7374 137.093 37.4842C136.878 37.2534 136.316 37.2211 135.616 37.3229V36.8512C136.583 36.6898 137.058 36.5955 137.596 36.4739L139.927 35.9302C139.973 35.9599 140.009 36.0041 140.031 36.0568L138.299 42.052C139.359 40.3143 140.242 39.0234 140.956 38.1769C142.206 36.6799 143.326 35.9327 144.316 35.9327C145.427 35.9327 146.099 36.6129 146.099 37.8293C146.099 38.2737 146.002 38.7503 145.865 39.3089C145.865 39.3089 144.126 46.1258 144.042 46.4957C144.008 46.6345 143.986 46.7768 143.978 46.9202C143.978 47.2007 144.089 47.4639 144.367 47.4639C144.592 47.4639 144.852 47.3224 145.148 47.0394C145.443 46.7564 145.925 46.1506 146.593 45.2222L146.971 45.5846C146.259 46.6174 145.696 47.3422 145.278 47.7593C144.566 48.4941 143.885 48.859 143.233 48.859C142.642 48.859 141.972 48.509 141.972 47.4118C141.981 47.0865 142.025 46.734 142.088 46.451L143.729 39.6763C143.903 38.9365 143.952 38.4599 143.952 38.2563C143.952 37.8094 143.778 37.4321 143.275 37.4321C142.623 37.4321 141.803 38.0627 140.812 39.3287C140.166 40.181 139.574 41.0792 139.041 42.0173C138.61 42.7665 138.245 43.5578 137.953 44.3806C137.687 45.1378 137.267 46.528 136.694 48.5463V48.5463ZM154.774 44.043C153.559 46.2996 152.295 47.4291 150.985 47.4291C150.099 47.4291 149.422 46.7837 149.422 45.2967C149.422 43.8196 149.955 42.0595 151.022 40.0139C152.237 37.6903 153.552 36.5285 154.968 36.5285C155.785 36.5285 156.438 37.1441 156.438 38.4797C156.441 40.1355 155.884 41.99 154.774 44.043V44.043ZM149.58 39.2071C147.947 41.3271 147.131 43.3603 147.131 45.3116C147.131 46.4461 147.419 47.3224 147.991 47.9405C148.905 48.9236 149.992 49.0651 151.207 48.6158C151.789 48.365 152.397 47.938 153.03 47.3348C153.87 46.5278 154.594 45.5926 155.179 44.5594C155.045 45.0813 154.929 45.6089 154.834 46.1407C154.588 47.4515 154.583 48.0274 154.924 48.4892C155.014 48.6086 155.128 48.7037 155.258 48.7667C155.388 48.8297 155.531 48.8588 155.673 48.8516C156.167 48.8516 156.689 48.6307 157.236 48.1888C157.783 47.7494 158.507 46.9103 159.411 45.674L159.098 45.3811C157.89 46.6893 157.524 47.0245 157.524 47.0245C157.109 47.382 156.87 47.4291 156.696 47.2702C156.631 47.2107 156.598 47.1163 156.598 46.9848C156.598 46.7812 156.758 45.962 157.081 44.5321C158.977 36.5955 159.038 36.3572 159.098 36.1412C159.114 36.0568 159.117 35.9997 159.105 35.9674C159.091 35.9351 159.047 35.9178 158.968 35.9178L157.498 36.099C157.401 36.1089 157.343 36.1338 157.315 36.176C157.259 36.3001 156.937 37.4793 156.937 37.4793L156.872 37.2831C156.547 36.3249 155.866 35.9029 154.815 35.9029C153.007 35.9029 151.263 37.0026 149.58 39.2071V39.2071ZM159.729 47.6252C159.731 47.4664 159.75 47.2702 159.794 47.0667L162.24 37.3229H160.262C160.262 36.8214 160.299 36.7842 160.573 36.6526C161.449 36.2529 162.129 35.8681 162.611 35.4957C163.093 35.1259 163.749 34.4084 164.584 33.3484L164.793 33.0828C164.818 33.0455 164.851 33.0149 164.89 32.9934C164.928 32.9718 164.97 32.96 165.013 32.9586C165.076 32.9698 165.137 32.9881 165.196 33.0132C165.222 33.0778 165.238 33.1374 165.243 33.187C165.247 33.2367 165.245 33.2913 165.236 33.3459L164.494 36.3845H166.615L166.46 37.3179H164.246L161.901 46.6993C161.816 47.0319 161.959 47.4093 162.293 47.4093C162.518 47.4093 162.834 47.1685 163.244 46.6844C163.478 46.4262 163.872 45.9098 164.429 45.1378L164.767 45.3463L164.584 45.6392C163.838 46.8383 163.181 47.6724 162.611 48.1416C162.043 48.6108 161.503 48.8442 160.99 48.8442C160.104 48.8516 159.729 48.2583 159.729 47.6252V47.6252ZM171.065 32.8618C170.353 32.8618 169.776 32.1816 169.776 31.3425C169.776 30.4885 170.351 29.8083 171.065 29.8083C171.775 29.8083 172.368 30.4861 172.368 31.3425C172.366 32.2015 171.772 32.8618 171.065 32.8618ZM171.383 35.9078C171.431 35.9401 171.45 35.9798 171.441 36.027L168.811 45.9793C168.73 46.2905 168.668 46.6074 168.628 46.9277C168.628 47.2107 168.691 47.4564 169.032 47.4564C169.326 47.4564 169.716 47.1834 170.202 46.6322C170.49 46.307 170.84 45.8428 171.258 45.2371L171.596 45.5449L171.466 45.7385C170.815 46.7167 170.277 47.4167 169.852 47.8437C169.185 48.514 168.533 48.8466 167.9 48.8466C167.151 48.8466 166.597 48.0721 166.597 47.161C166.597 46.6223 166.653 46.3517 166.843 45.5697C166.843 45.5697 168.693 38.2935 168.73 38.0974C168.747 38.0058 168.755 37.9127 168.756 37.8194C168.756 37.1491 168.405 37.0821 167.049 37.0821V36.6228C167.889 36.515 168.727 36.3892 169.563 36.2455C169.98 36.171 170.374 36.0891 170.747 35.9947C171.125 35.9078 171.336 35.8756 171.383 35.9078V35.9078ZM175.74 39.6812C176.901 37.5537 178.149 36.4887 179.477 36.4887C180.711 36.4887 181.379 37.3725 181.379 39.3883C181.379 41.0342 180.913 42.8365 179.985 44.7977C178.891 47.0841 177.639 48.2285 176.222 48.2285C174.831 48.2285 174.098 47.0915 174.098 45.5524C174.098 43.6235 174.645 41.6697 175.74 39.6812V39.6812ZM174.27 38.7602C172.656 40.6196 171.849 42.5659 171.849 44.6016C171.849 47.2976 173.412 48.8516 175.807 48.8516C177.708 48.8516 179.496 47.8685 181.17 45.8974C182.793 44.0008 183.605 42.0694 183.605 40.0983C183.605 38.9638 183.306 37.9807 182.707 37.1491C182.109 36.3175 181.08 35.9029 179.621 35.9029C177.701 35.9029 175.918 36.8562 174.27 38.7602V38.7602ZM185.11 48.5463H183.09C183.09 48.5463 185.534 39.2071 185.675 38.6138C185.752 38.229 185.743 37.7374 185.506 37.4842C185.291 37.2534 184.729 37.2211 184.027 37.3229V36.8512C184.994 36.6898 185.471 36.5955 186.007 36.4739L188.337 35.9302C188.383 35.9607 188.419 36.0047 188.442 36.0568L186.71 42.052C187.769 40.3143 188.653 39.0234 189.365 38.1769C190.614 36.6799 191.734 35.9327 192.724 35.9327C193.837 35.9327 194.51 36.6154 194.51 37.8293C194.51 38.2737 194.413 38.7503 194.276 39.3089C194.276 39.3089 192.537 46.1258 192.453 46.4957C192.418 46.6345 192.397 46.7768 192.388 46.9202C192.388 47.2007 192.497 47.4639 192.78 47.4639C193.005 47.4639 193.265 47.3224 193.559 47.0394C193.854 46.7564 194.336 46.1506 195.006 45.2222L195.384 45.5846C194.672 46.6174 194.109 47.3422 193.691 47.7593C192.979 48.4941 192.298 48.859 191.649 48.859C191.057 48.859 190.385 48.5065 190.385 47.4118C190.396 47.0865 190.438 46.734 190.503 46.451L192.145 39.6763C192.319 38.9365 192.365 38.4599 192.365 38.2563C192.365 37.8119 192.193 37.4321 191.688 37.4321C191.036 37.4321 190.218 38.0627 189.228 39.3287C188.581 40.181 187.989 41.0792 187.456 42.0173C187.024 42.766 186.66 43.5574 186.369 44.3806C186.102 45.1378 185.682 46.528 185.11 48.5463V48.5463ZM203.189 44.043C201.974 46.2996 200.713 47.4291 199.4 47.4291C198.514 47.4291 197.837 46.7837 197.837 45.2967C197.837 43.8196 198.371 42.0595 199.437 40.0139C200.652 37.6903 201.967 36.5285 203.384 36.5285C204.2 36.5285 204.854 37.1441 204.854 38.4797C204.856 40.1355 204.3 41.99 203.189 44.043V44.043ZM197.995 39.2071C196.363 41.3271 195.546 43.3603 195.546 45.3116C195.546 46.4461 195.834 47.3224 196.407 47.9405C197.32 48.9236 198.412 49.0651 199.623 48.6158C200.205 48.365 200.812 47.938 201.448 47.3348C202.521 46.3319 203.284 45.1179 203.595 44.5594C203.461 45.0817 203.346 45.6091 203.249 46.1407C203.006 47.4515 202.999 48.0274 203.342 48.4892C203.431 48.6088 203.545 48.704 203.676 48.767C203.806 48.83 203.948 48.859 204.091 48.8516C204.585 48.8516 205.107 48.6307 205.654 48.1888C206.201 47.7494 206.924 46.9103 207.829 45.674L207.518 45.3811C206.31 46.6893 205.941 47.0245 205.941 47.0245C205.515 47.3894 205.283 47.4266 205.116 47.2702C205.051 47.2107 205.018 47.1163 205.018 46.9848C205.018 46.7812 205.178 45.962 205.501 44.5321C207.397 36.5955 207.458 36.3572 207.52 36.1412C207.537 36.0568 207.539 35.9997 207.525 35.9674C207.513 35.9351 207.467 35.9178 207.388 35.9178L205.916 36.099C205.818 36.1089 205.76 36.1338 205.733 36.176C205.677 36.3001 205.355 37.4793 205.355 37.4793L205.29 37.2831C204.965 36.3249 204.283 35.9029 203.233 35.9029C201.422 35.9029 199.678 37.0026 197.995 39.2071V39.2071ZM208.255 45.5772C208.255 45.5772 211.752 31.5163 211.782 31.2755C211.789 31.178 211.792 31.0803 211.794 30.9826C211.794 30.352 211.432 30.2949 210.011 30.3123V29.853C210.85 29.7339 211.866 29.5849 212.355 29.5055C212.84 29.4111 213.431 29.2746 214.126 29.0884C214.187 29.0884 214.247 29.1356 214.31 29.2274C214.31 29.2274 210.113 46.384 210.039 46.7092C209.943 47.1461 210.036 47.6004 210.442 47.6004C210.755 47.6004 211.163 47.3025 211.666 46.7092C212.169 46.1159 212.594 45.5375 212.942 44.9814L213.294 45.2445C212.547 46.4262 211.965 47.2429 211.55 47.6972C210.829 48.4693 210.103 48.8541 209.375 48.8541C208.587 48.8541 207.982 48.3228 207.982 47.3224C207.982 46.9475 208.068 46.3989 208.255 45.5772V45.5772ZM216.102 31.0099C216.519 30.563 217.02 30.3396 217.609 30.3396C218.198 30.3396 218.701 30.563 219.116 31.0099C219.531 31.4567 219.742 31.9929 219.742 32.6235C219.742 33.254 219.534 33.7928 219.116 34.2371C218.699 34.6815 218.198 34.9074 217.609 34.9074C217.02 34.9074 216.517 34.684 216.102 34.2371C215.687 33.7903 215.476 33.254 215.476 32.6235C215.476 31.9929 215.685 31.4567 216.102 31.0099ZM217.674 34.1006V33.9268C217.236 33.9318 217.199 33.8672 217.199 33.6761V32.6607C217.841 32.6458 217.992 32.7576 218.027 33.3484C218.027 33.544 218.059 33.7382 218.122 33.9218C218.196 34.0758 218.344 34.1502 218.562 34.1502C218.919 34.1502 219.109 33.9963 219.153 33.3831H218.984C218.933 33.8722 218.88 33.9218 218.741 33.9218C218.676 33.9218 218.595 33.7332 218.5 33.3558C218.405 32.9785 218.184 32.7327 217.846 32.616V32.5912C218.421 32.5292 218.794 32.2462 218.794 31.849C218.794 31.3698 218.321 31.0819 217.63 31.0819H216.262V31.2532C216.624 31.2532 216.735 31.2954 216.735 31.5039V33.6761C216.735 33.9094 216.635 33.9268 216.262 33.9268V34.1006H217.674V34.1006ZM215.919 34.4357C216.385 34.9347 216.948 35.1854 217.609 35.1854C218.27 35.1854 218.834 34.9347 219.3 34.4357C219.766 33.9367 220 33.3335 220 32.626C220 31.9185 219.766 31.3152 219.3 30.8162C218.834 30.3173 218.27 30.0665 217.609 30.0665C216.948 30.0665 216.385 30.3173 215.919 30.8162C215.453 31.3152 215.219 31.9185 215.219 32.626C215.219 33.3335 215.45 33.9367 215.919 34.4357ZM217.199 31.5039C217.199 31.3003 217.345 31.2532 217.577 31.2532C218.024 31.2532 218.221 31.4691 218.221 31.8415C218.221 32.132 218.124 32.3206 217.929 32.405C217.691 32.4729 217.445 32.4997 217.199 32.4845V31.5039ZM98.4073 24.7564C98.0989 24.5628 98.0061 24.0787 98.0826 23.5301C98.1429 23.195 101.858 8.93547 101.858 8.93547C102.013 8.32478 102.421 8.11376 103.59 8.11376C105.716 8.11376 107.186 8.72198 108.002 9.9384C108.818 11.1548 109.227 12.6518 109.227 14.4268C109.227 16.2663 108.823 18.0736 108.016 19.8485C106.444 23.2694 103.724 24.9774 99.8518 24.9774C99.1237 24.9799 98.6414 24.9054 98.4073 24.7564ZM100.334 25.886C103.944 25.886 106.878 24.7341 109.136 22.4279C111.193 20.3277 112.222 17.8452 112.222 14.9828C112.222 12.5847 111.36 10.5119 109.904 9.11421C109.136 8.3908 108.215 7.87869 107.221 7.62223C106.118 7.36534 104.992 7.24374 103.863 7.25978H96.9743V7.72153C98.551 7.75877 99.0449 8.05915 99.0449 8.99009C99.0449 9.40218 98.922 9.93095 98.7319 10.6906L95.4624 23.3191C95.2283 24.2004 94.9291 24.7838 94.5651 25.0618C94.3309 25.248 93.8996 25.3671 93.2759 25.4242V25.886H100.334V25.886ZM116.637 10.2015C115.925 10.2015 115.348 9.52134 115.348 8.68226C115.348 7.82828 115.923 7.14807 116.637 7.14807C117.349 7.14807 117.94 7.82579 117.94 8.68226C117.94 9.53872 117.349 10.2015 116.637 10.2015ZM116.955 13.2501C117.004 13.2823 117.022 13.3221 117.013 13.3692L114.383 23.3216C114.302 23.6327 114.24 23.9496 114.2 24.2699C114.2 24.5529 114.263 24.7987 114.604 24.7987C114.898 24.7987 115.288 24.5256 115.775 23.9745C116.062 23.6493 116.412 23.185 116.83 22.5793L117.168 22.8871L117.038 23.0808C116.387 24.0589 115.849 24.7589 115.425 25.1859C114.757 25.8562 114.105 26.1889 113.472 26.1889C112.725 26.1889 112.169 25.4143 112.169 24.5032C112.169 23.9645 112.225 23.6939 112.417 22.912C112.417 22.912 114.265 15.6357 114.305 15.4396C114.321 15.348 114.33 15.2549 114.33 15.1616C114.33 14.4888 113.973 14.4243 112.626 14.4243V13.9675C113.864 13.8037 114.499 13.6994 115.137 13.5902C115.554 13.5157 115.949 13.4338 116.322 13.3394C116.698 13.2476 116.909 13.2178 116.955 13.2501V13.2501ZM118.949 25.886H116.932C116.932 25.886 119.376 16.5468 119.515 15.9535C119.591 15.5687 119.582 15.0772 119.346 14.824C119.132 14.5931 118.569 14.5608 117.868 14.6626V14.1909C118.835 14.0296 119.311 13.9352 119.849 13.8136L122.179 13.2699C122.225 13.3002 122.261 13.3443 122.283 13.3965L120.551 19.3893C121.611 17.6515 122.494 16.3606 123.209 15.5141C124.458 14.0172 125.578 13.2699 126.568 13.2699C127.679 13.2699 128.352 13.9501 128.352 15.1665C128.352 15.6109 128.254 16.0876 128.117 16.6461C128.117 16.6461 126.378 23.4631 126.295 23.833C126.26 23.9718 126.238 24.114 126.23 24.2575C126.23 24.538 126.341 24.8011 126.619 24.8011C126.844 24.8011 127.104 24.6596 127.401 24.3766C127.695 24.0936 128.178 23.4879 128.845 22.5594L129.223 22.9219C128.511 23.9546 127.948 24.6795 127.531 25.0966C126.819 25.8314 126.137 26.1988 125.486 26.1988C125.177 26.194 124.879 26.0845 124.632 25.886C124.28 25.6179 124.157 25.0419 124.254 24.2475C124.303 23.9174 125.979 17.011 125.979 17.011C126.153 16.2713 126.202 15.7946 126.202 15.5911C126.202 15.1467 126.028 14.7669 125.525 14.7669C124.873 14.7669 124.053 15.3974 123.062 16.6635C122.416 17.5158 121.824 18.414 121.291 19.352C120.859 20.1008 120.494 20.8922 120.203 21.7154C119.941 22.4775 119.522 23.8677 118.949 25.886V25.886ZM132.792 18.6793C133.297 17.371 134.19 15.8418 135.352 14.742C135.894 14.2257 136.446 13.9675 137.012 13.9675C137.62 13.9675 137.935 14.4193 137.935 15.1243C137.935 16.1 137.413 17.083 136.372 18.0736C135.331 19.0641 133.981 19.6872 132.324 19.9478C132.488 19.4737 132.643 19.0517 132.792 18.6793V18.6793ZM130.591 25.1884C131.285 25.886 132.092 26.2335 133.012 26.2335C134.315 26.2335 135.611 25.737 136.905 24.7416C137.532 24.2831 138.097 23.7343 138.584 23.1106L138.246 22.7903C137.673 23.3155 137.069 23.7998 136.437 24.2401C134.939 25.1934 133.559 25.1412 132.59 24.2525C132.092 23.7982 131.841 23.1627 131.841 22.3435C131.841 21.6583 131.915 21.3356 132.14 20.5734L132.882 20.4766C134.521 20.2541 136.095 19.6572 137.499 18.7265C138.96 17.7732 139.692 16.6287 139.692 15.2907C139.692 13.97 138.832 13.2972 137.478 13.2972C135.646 13.2972 133.87 14.2629 132.152 16.1968C130.415 18.1282 129.548 20.1266 129.548 22.1895C129.55 23.4929 129.898 24.4908 130.591 25.1884Z" fill="#232324" />
    <path d="M143.716 13.2003C143.795 13.2003 143.848 13.2252 143.878 13.2773C143.909 13.3293 143.925 13.3896 143.925 13.4511C143.918 13.5208 143.909 13.5903 143.899 13.6596L142.596 19.0541L142.883 18.4533C143.489 17.174 144.225 15.9702 145.077 14.8636C145.914 13.7812 146.712 13.2401 147.468 13.2401C148.279 13.2401 148.743 13.9178 148.743 14.6601C148.743 15.5016 148.27 16.1098 147.493 16.1098C146.955 16.1098 146.712 15.8516 146.556 15.5513L146.401 15.2459C146.368 15.1924 146.326 15.1467 146.276 15.1119C146.223 15.0776 146.161 15.0604 146.099 15.0622C145.761 15.0622 145.274 15.5686 144.634 16.5815C143.996 17.5944 143.426 18.6916 142.923 19.8708C142.619 20.5858 142.281 21.5341 141.907 22.7158C141.673 23.458 141.36 24.5131 140.97 25.8785H138.962C138.962 25.8785 141.244 17.0035 141.418 16.1918C141.576 15.37 141.576 14.8934 141.332 14.6154C141.107 14.3597 140.662 14.3671 139.704 14.4888V14.0369C140.903 13.7763 143.247 13.2847 143.716 13.2003V13.2003ZM146.821 26.2881L147.342 21.7302H147.771C147.964 22.8548 148.189 23.679 148.448 24.1978C148.926 25.1561 149.638 25.6352 150.584 25.6352C151.641 25.6352 152.46 24.7663 152.46 23.4481C152.46 22.6264 152.256 22.1597 151.978 21.7327L150.897 20.0173C150.245 18.9771 149.837 18.2795 149.673 17.927C149.04 16.589 149.209 15.2211 150.109 14.1983C150.651 13.5802 151.421 13.2698 152.42 13.2698C152.847 13.2698 153.332 13.3567 153.879 13.528C154.426 13.6993 154.799 13.7862 154.999 13.7862C155.435 13.7862 155.595 13.5851 155.766 13.2698H156.144L155.611 17.2294H155.182C155.068 16.3283 154.899 15.6506 154.674 15.1963C154.259 14.3497 153.598 13.9277 152.696 13.9277C151.929 13.9277 151.224 14.4515 151.224 15.4321C151.224 15.8144 151.291 16.1495 151.426 16.435C151.56 16.723 151.866 17.2344 152.344 17.9692L153.267 19.3917C153.744 20.1265 154.083 20.7273 154.282 21.189C154.482 21.6557 154.581 22.1572 154.581 22.6934C154.581 23.6964 154.183 24.5429 153.383 25.2305C152.574 25.9207 151.565 26.2852 150.531 26.2608C150.176 26.2608 149.666 26.1813 149.007 26.0249C148.63 25.9217 148.248 25.8429 147.862 25.7891C147.516 25.7891 147.389 25.9554 147.25 26.2906H146.821V26.2881ZM173.171 7.31185C173.927 7.31185 174.745 7.42108 175.629 7.63954C176.512 7.858 177.048 7.96723 177.233 7.96723C177.862 7.96723 178.045 7.73884 178.214 7.33915H178.75L177.794 12.9024L177.335 12.8354C177.069 9.7025 175.705 8.30733 173.324 8.30733C170.947 8.30733 168.988 9.58085 167.453 12.1254C166.133 14.2552 165.432 16.7563 165.44 19.3123C165.44 21.2287 165.848 22.6785 166.664 23.6616C167.478 24.6447 168.526 25.1337 169.809 25.1337C171.088 25.1465 172.347 24.7889 173.451 24.0985C174.105 23.6815 174.959 22.9317 176.011 21.8494L176.431 22.2441C174.53 24.8284 172.123 26.4023 169.234 26.4023C167.059 26.4023 165.391 25.6675 164.227 24.1929C163.077 22.76 162.456 20.926 162.481 19.0367C162.481 16.2191 163.453 13.6199 165.398 11.2367C167.532 8.62261 170.122 7.31185 173.171 7.31185V7.31185ZM177.59 22.9168C177.59 22.9168 181.087 8.85596 181.117 8.61516C181.124 8.49352 181.131 8.3967 181.131 8.32222C181.131 8.00695 181.01 7.81331 180.772 7.7438C180.533 7.67429 180.057 7.64202 179.346 7.65195V7.19269C180.185 7.07353 181.201 6.92458 181.69 6.84514C182.175 6.7508 182.766 6.61426 183.461 6.42808C183.522 6.42808 183.582 6.47524 183.645 6.5671C183.645 6.5671 179.448 23.7237 179.373 24.0489C179.285 24.4858 179.371 24.9401 179.777 24.9401C180.09 24.9401 180.498 24.6422 181.001 24.0489C181.466 23.5077 181.892 22.9302 182.277 22.321L182.629 22.5842C181.882 23.7659 181.3 24.5826 180.885 25.0369C180.164 25.809 179.438 26.1937 178.71 26.1937C178.416 26.1984 178.127 26.1113 177.878 25.943C177.505 25.6923 177.319 25.2653 177.319 24.6596C177.317 24.2872 177.403 23.7386 177.59 22.9168V22.9168ZM183.51 23.6417C183.51 23.6417 185.349 15.7275 185.379 15.5637C185.391 15.4832 185.397 15.4019 185.398 15.3204C185.398 14.5235 185.038 14.4565 183.823 14.4565V14.0642L187.807 13.2425C187.851 13.2326 187.888 13.2525 187.923 13.2972C187.957 13.3418 187.971 13.389 187.962 13.4362L187.923 13.6323C185.558 23.3438 185.462 23.7857 185.449 23.9322C185.449 24.3567 185.694 24.6149 186.061 24.6149C186.573 24.6149 187.213 24.1258 187.981 23.1502C189.455 21.3044 190.648 19.2207 191.514 16.9762C191.793 16.2613 192.191 15.1218 192.713 13.5603H194.679C194.679 13.5603 192.175 23.6293 192.101 23.9595C192.025 24.307 192.031 24.5007 192.127 24.6645C192.231 24.8408 192.525 24.8507 192.804 24.6372C192.943 24.5305 193.117 24.3641 193.325 24.1407C193.594 23.8205 194.002 23.2818 194.561 22.5519L194.925 22.8151C194.526 23.5226 194.109 24.1308 193.675 24.6397C192.815 25.6724 192.018 26.1888 191.28 26.1888C190.517 26.1888 189.977 25.7593 189.977 24.8085C189.977 23.9049 190.332 22.6711 190.849 20.6007L191.136 19.414H191.044C189.845 21.5415 188.903 23.0484 188.219 23.9297C187.03 25.444 185.905 26.2012 184.846 26.2012C184.574 26.2055 184.306 26.1382 184.064 26.0051C183.612 25.7469 183.387 25.2802 183.387 24.6124C183.401 24.2648 183.436 24.0216 183.51 23.6417V23.6417ZM197.163 24.3666C197.163 22.8523 197.71 20.9482 198.805 18.6519C200.061 16.013 201.383 14.6923 202.763 14.6923C203.839 14.6923 204.638 15.6257 204.638 17.0755C204.638 18.6743 204.036 20.4368 202.828 22.3583C201.49 24.4957 200.054 25.5657 198.519 25.5657C197.58 25.5657 197.163 25.094 197.163 24.3666V24.3666ZM195.927 25.5781C196.674 26.0051 197.494 26.2186 198.389 26.2186C200.351 26.2186 202.248 25.238 204.08 23.2768C205.962 21.261 206.906 19.0938 206.906 16.7801C206.906 15.7871 206.616 14.953 206.039 14.2777C205.462 13.605 204.694 13.2674 203.741 13.2674C202.726 13.2674 201.74 13.7366 200.787 14.6749C200.24 15.2136 199.577 16.0776 198.795 17.2667L201.388 6.72846L201.413 6.54724C201.413 6.47276 201.395 6.41566 201.355 6.38091C201.322 6.34706 201.278 6.3276 201.232 6.32629C201.033 6.32629 200.701 6.38091 200.235 6.49262C199.769 6.60433 199.509 6.66391 199.447 6.67384C198.452 6.83272 197.801 6.9072 197.221 6.99409V7.48562C198.009 7.53279 198.294 7.55017 198.459 7.58244C198.874 7.71401 198.941 7.96723 198.941 8.21051C198.922 8.53574 198.874 8.85826 198.798 9.17372L194.904 24.5776C194.837 24.8259 195.18 25.161 195.927 25.5781V25.5781Z" fill="#232324" />
  </g>
  <defs>
    <filter id="filter0_b_3929_201" x="-4" y="-3.98621" width="92.5181" height="64.9734" filterUnits="userSpaceOnUse" color-interpolation-filters="sRGB">
      <feFlood flood-opacity="0" result="BackgroundImageFix" />
      <feGaussianBlur in="BackgroundImageFix" stdDeviation="2" />
      <feComposite in2="SourceAlpha" operator="in" result="effect1_backgroundBlur_3929_201" />
      <feBlend mode="normal" in="SourceGraphic" in2="effect1_backgroundBlur_3929_201" result="shape" />
    </filter>
    <filter id="filter1_b_3929_201" x="-4" y="-3.43469" width="60.7119" height="64.4347" filterUnits="userSpaceOnUse" color-interpolation-filters="sRGB">
      <feFlood flood-opacity="0" result="BackgroundImageFix" />
      <feGaussianBlur in="BackgroundImageFix" stdDeviation="2" />
      <feComposite in2="SourceAlpha" operator="in" result="effect1_backgroundBlur_3929_201" />
      <feBlend mode="normal" in="SourceGraphic" in2="effect1_backgroundBlur_3929_201" result="shape" />
    </filter>
    <filter id="filter2_d_3929_201" x="6.95605" y="11.7026" width="98.7183" height="44.8435" filterUnits="userSpaceOnUse" color-interpolation-filters="sRGB">
      <feFlood flood-opacity="0" result="BackgroundImageFix" />
      <feColorMatrix in="SourceAlpha" type="matrix" values="0 0 0 0 0 0 0 0 0 0 0 0 0 0 0 0 0 0 127 0" result="hardAlpha" />
      <feOffset dy="4" />
      <feGaussianBlur stdDeviation="2" />
      <feComposite in2="hardAlpha" operator="out" />
      <feColorMatrix type="matrix" values="0 0 0 0 0 0 0 0 0 0 0 0 0 0 0 0 0 0 0.25 0" />
      <feBlend mode="normal" in2="BackgroundImageFix" result="effect1_dropShadow_3929_201" />
      <feBlend mode="normal" in="SourceGraphic" in2="effect1_dropShadow_3929_201" result="shape" />
    </filter>
    <linearGradient id="paint0_linear_3929_201" x1="42.2591" y1="0.0137939" x2="42.2591" y2="56.9872" gradientUnits="userSpaceOnUse">
      <stop stop-color="#252526" />
      <stop offset="1" stop-color="#363644" stop-opacity="0.5" />
    </linearGradient>
    <linearGradient id="paint1_linear_3929_201" x1="26.356" y1="0.565308" x2="26.356" y2="57" gradientUnits="userSpaceOnUse">
      <stop stop-color="#E6E6FF" stop-opacity="0.08" />
      <stop offset="1" stop-color="#E1E1E6" />
    </linearGradient>
    <clipPath id="clip0_3929_201">
      <rect width="220" height="57" fill="white" />
    </clipPath>
  </defs>
</svg>
