<svg width="40" height="25" viewBox="0 0 103 64" fill="none" xmlns="http://www.w3.org/2000/svg">
<g filter="url(#filter0_b_3929_219)">
<path fill-rule="evenodd" clip-rule="evenodd" d="M51.4099 55.4169C54.569 52.4474 57.0909 48.8305 58.8139 44.798C60.5369 40.7655 61.423 36.4065 61.4152 32.0005C61.4231 27.5945 60.5371 23.2355 58.8141 19.203C57.0911 15.1705 54.5691 11.5536 51.4099 8.58415C46.0078 3.50341 38.8417 0.407227 30.9778 0.407227C14.1686 0.407227 0.541016 14.5518 0.541016 32.0005C0.541016 49.4486 14.1686 63.5938 30.9778 63.5938C38.8417 63.5938 46.0084 60.4976 51.4099 55.4169Z" fill="url(#paint0_linear_3929_219)" fill-opacity="0.6"/>
</g>
<g filter="url(#filter1_b_3929_219)">
<path fill-rule="evenodd" clip-rule="evenodd" d="M71.8421 0.407227C63.9782 0.407227 56.811 3.50341 51.41 8.58415C50.3086 9.62113 49.2815 10.7391 48.337 11.9291H54.4808C55.3243 12.9913 56.1 14.1088 56.8029 15.2746H46.0167C45.3673 16.3527 44.7813 17.4698 44.2618 18.6201H58.555C59.0469 19.7089 59.4781 20.8257 59.8465 21.9651H42.973C42.6192 23.0626 42.3242 24.1792 42.0894 25.31H60.7307C61.1871 27.5091 61.4167 29.7517 61.4159 32.0005C61.4159 35.508 60.8634 38.8826 59.847 42.0354H42.973C43.3401 43.1751 43.7704 44.2921 44.2618 45.3809H58.555C58.0364 46.5313 57.4511 47.6485 56.8023 48.7264H46.0167C46.7189 49.8921 47.4938 51.0096 48.3365 52.0719H54.4808C53.5375 53.2625 52.5112 54.3807 51.41 55.4174C56.811 60.4982 63.9782 63.5944 71.8421 63.5944C88.6508 63.5944 102.279 49.4492 102.279 32.0011C102.279 14.5518 88.6508 0.407227 71.8421 0.407227Z" fill="url(#paint1_linear_3929_219)" fill-opacity="0.8"/>
</g>
<defs>
<filter id="filter0_b_3929_219" x="-3.45898" y="-3.59277" width="68.874" height="71.1865" filterUnits="userSpaceOnUse" color-interpolation-filters="sRGB">
<feFlood flood-opacity="0" result="BackgroundImageFix"/>
<feGaussianBlur in="BackgroundImageFix" stdDeviation="2"/>
<feComposite in2="SourceAlpha" operator="in" result="effect1_backgroundBlur_3929_219"/>
<feBlend mode="normal" in="SourceGraphic" in2="effect1_backgroundBlur_3929_219" result="shape"/>
</filter>
<filter id="filter1_b_3929_219" x="38.0894" y="-3.59277" width="68.1895" height="71.1871" filterUnits="userSpaceOnUse" color-interpolation-filters="sRGB">
<feFlood flood-opacity="0" result="BackgroundImageFix"/>
<feGaussianBlur in="BackgroundImageFix" stdDeviation="2"/>
<feComposite in2="SourceAlpha" operator="in" result="effect1_backgroundBlur_3929_219"/>
<feBlend mode="normal" in="SourceGraphic" in2="effect1_backgroundBlur_3929_219" result="shape"/>
</filter>
<linearGradient id="paint0_linear_3929_219" x1="30.9781" y1="0.407227" x2="30.9781" y2="63.5938" gradientUnits="userSpaceOnUse">
<stop stop-color="white" stop-opacity="0.71"/>
<stop offset="1" stop-color="white"/>
</linearGradient>
<linearGradient id="paint1_linear_3929_219" x1="72.1841" y1="0.407227" x2="72.1841" y2="63.5944" gradientUnits="userSpaceOnUse">
<stop stop-color="white" stop-opacity="0.07"/>
<stop offset="0.0001" stop-color="white" stop-opacity="0.07"/>
<stop offset="1" stop-color="white"/>
</linearGradient>
</defs>
</svg>
